<svg width="1920" height="1080" viewBox="0 0 1920 1080" fill="none" xmlns="http://www.w3.org/2000/svg">
  <defs>
    <linearGradient id="amberGlow" x1="0" y1="0" x2="1" y2="1">
      <stop offset="0%" stop-color="#fef3c7"/>
      <stop offset="45%" stop-color="#f59e0b"/>
      <stop offset="100%" stop-color="#f97316"/>
    </linearGradient>
    <linearGradient id="nightVelvet" x1="0" y1="0" x2="1" y2="1">
      <stop offset="0%" stop-color="#0f172a"/>
      <stop offset="100%" stop-color="#1e293b"/>
    </linearGradient>
    <radialGradient id="mist" cx="0.5" cy="0.4" r="0.7">
      <stop offset="0%" stop-color="#ffffff" stop-opacity="0.7"/>
      <stop offset="100%" stop-color="#ffffff" stop-opacity="0"/>
    </radialGradient>
    <filter id="softBlur" x="-40%" y="-40%" width="180%" height="180%">
      <feGaussianBlur stdDeviation="60" />
    </filter>
  </defs>
  <rect width="1920" height="1080" fill="url(#nightVelvet)"/>
  <circle cx="360" cy="260" r="320" fill="url(#amberGlow)" opacity="0.35" filter="url(#softBlur)"/>
  <circle cx="1560" cy="180" r="360" fill="url(#amberGlow)" opacity="0.28" filter="url(#softBlur)"/>
  <circle cx="1260" cy="820" r="420" fill="url(#amberGlow)" opacity="0.2" filter="url(#softBlur)"/>

  <g opacity="0.9">
    <rect x="840" y="280" width="240" height="340" rx="28" fill="url(#mist)" />
    <rect x="880" y="240" width="160" height="80" rx="18" fill="rgba(255, 255, 255, 0.35)" />
    <rect x="915" y="190" width="90" height="60" rx="16" fill="rgba(255, 255, 255, 0.45)" />
    <rect x="920" y="620" width="80" height="90" rx="12" fill="rgba(255, 255, 255, 0.2)" />
  </g>

  <path d="M120 760C420 620 680 640 920 700C1160 760 1440 800 1800 660" stroke="#fef3c7" stroke-width="3" stroke-linecap="round" opacity="0.6"/>
  <path d="M80 840C420 700 760 760 1040 820C1320 880 1600 900 1840 780" stroke="#fdba74" stroke-width="2" stroke-linecap="round" opacity="0.5"/>
</svg>
